<mxfile host="app.diagrams.net" agent="Mozilla/5.0 (Windows NT 10.0; Win64; x64) AppleWebKit/537.36 (KHTML, like Gecko) Chrome/135.0.0.0 Safari/537.36" version="26.2.13">
  <diagram name="Trang-1" id="b3UQH6nHMwnap7y-dKLE">
    <mxGraphModel dx="2205" dy="703" grid="1" gridSize="10" guides="1" tooltips="1" connect="1" arrows="1" fold="1" page="1" pageScale="1" pageWidth="900" pageHeight="1600" math="0" shadow="0">
      <root>
        <mxCell id="0" />
        <mxCell id="1" parent="0" />
        <mxCell id="czJXQbk37fORs2e5UW5i-1" value="AuthController" style="shape=umlLifeline;perimeter=lifelinePerimeter;whiteSpace=wrap;html=1;container=0;dropTarget=0;collapsible=0;recursiveResize=0;outlineConnect=0;portConstraint=eastwest;newEdgeStyle={&quot;edgeStyle&quot;:&quot;elbowEdgeStyle&quot;,&quot;elbow&quot;:&quot;vertical&quot;,&quot;curved&quot;:0,&quot;rounded&quot;:0};fontSize=14;" parent="1" vertex="1">
          <mxGeometry x="620" y="280" width="100" height="600" as="geometry" />
        </mxCell>
        <mxCell id="czJXQbk37fORs2e5UW5i-6" value="Nhập thông tin đăng nhập" style="html=1;verticalAlign=bottom;endArrow=block;edgeStyle=elbowEdgeStyle;elbow=vertical;curved=0;rounded=0;fontSize=14;" parent="1" source="czJXQbk37fORs2e5UW5i-14" target="czJXQbk37fORs2e5UW5i-34" edge="1">
          <mxGeometry relative="1" as="geometry">
            <mxPoint x="290" y="360" as="sourcePoint" />
            <Array as="points">
              <mxPoint x="375" y="360" />
            </Array>
            <mxPoint x="470" y="360" as="targetPoint" />
          </mxGeometry>
        </mxCell>
        <mxCell id="czJXQbk37fORs2e5UW5i-7" value="return" style="html=1;verticalAlign=bottom;endArrow=open;dashed=1;endSize=8;edgeStyle=elbowEdgeStyle;elbow=vertical;curved=0;rounded=0;" parent="1" edge="1">
          <mxGeometry relative="1" as="geometry">
            <mxPoint x="-70" y="548.82" as="targetPoint" />
            <Array as="points">
              <mxPoint x="25" y="548.82" />
            </Array>
            <mxPoint x="100" y="548.82" as="sourcePoint" />
          </mxGeometry>
        </mxCell>
        <mxCell id="czJXQbk37fORs2e5UW5i-8" value="Trả kết quả đăng nhập" style="html=1;verticalAlign=bottom;endArrow=block;edgeStyle=elbowEdgeStyle;elbow=horizontal;curved=0;rounded=0;fontSize=14;dashed=1;" parent="1" source="czJXQbk37fORs2e5UW5i-1" edge="1">
          <mxGeometry relative="1" as="geometry">
            <mxPoint x="655" y="450" as="sourcePoint" />
            <Array as="points">
              <mxPoint x="580" y="450" />
            </Array>
            <mxPoint x="490" y="450" as="targetPoint" />
          </mxGeometry>
        </mxCell>
        <mxCell id="czJXQbk37fORs2e5UW5i-9" value="return" style="html=1;verticalAlign=bottom;endArrow=open;dashed=1;endSize=8;edgeStyle=elbowEdgeStyle;elbow=vertical;curved=0;rounded=0;" parent="1" edge="1">
          <mxGeometry relative="1" as="geometry">
            <mxPoint x="95" y="488.82" as="targetPoint" />
            <Array as="points">
              <mxPoint x="10" y="488.82" />
            </Array>
            <mxPoint x="-70" y="488.82" as="sourcePoint" />
          </mxGeometry>
        </mxCell>
        <mxCell id="czJXQbk37fORs2e5UW5i-10" value="Gửi thông tin đăng nhập" style="html=1;verticalAlign=bottom;endArrow=block;edgeStyle=elbowEdgeStyle;elbow=vertical;curved=0;rounded=0;fontSize=14;" parent="1" source="czJXQbk37fORs2e5UW5i-34" target="czJXQbk37fORs2e5UW5i-36" edge="1">
          <mxGeometry relative="1" as="geometry">
            <mxPoint x="490" y="380" as="sourcePoint" />
            <Array as="points">
              <mxPoint x="575" y="380" />
            </Array>
            <mxPoint x="660" y="380" as="targetPoint" />
          </mxGeometry>
        </mxCell>
        <mxCell id="czJXQbk37fORs2e5UW5i-13" value="" style="html=1;points=[];perimeter=orthogonalPerimeter;outlineConnect=0;targetShapes=umlLifeline;portConstraint=eastwest;newEdgeStyle={&quot;edgeStyle&quot;:&quot;elbowEdgeStyle&quot;,&quot;elbow&quot;:&quot;vertical&quot;,&quot;curved&quot;:0,&quot;rounded&quot;:0};" parent="1" vertex="1">
          <mxGeometry x="110" y="320" width="10" height="170" as="geometry" />
        </mxCell>
        <mxCell id="czJXQbk37fORs2e5UW5i-15" value="Nhập điểm đi, điểm đến, ngày&amp;nbsp;" style="html=1;verticalAlign=bottom;endArrow=block;edgeStyle=elbowEdgeStyle;elbow=vertical;curved=0;rounded=0;fontSize=14;" parent="1" source="czJXQbk37fORs2e5UW5i-14" target="czJXQbk37fORs2e5UW5i-34" edge="1">
          <mxGeometry relative="1" as="geometry">
            <mxPoint x="290" y="480" as="sourcePoint" />
            <Array as="points">
              <mxPoint x="375" y="480" />
            </Array>
            <mxPoint x="470" y="480" as="targetPoint" />
          </mxGeometry>
        </mxCell>
        <mxCell id="czJXQbk37fORs2e5UW5i-16" value="Gửi yêu cầu tìm kiếm chuyến xe" style="html=1;verticalAlign=bottom;endArrow=block;edgeStyle=elbowEdgeStyle;elbow=vertical;curved=0;rounded=0;fontSize=14;" parent="1" source="czJXQbk37fORs2e5UW5i-34" target="czJXQbk37fORs2e5UW5i-37" edge="1">
          <mxGeometry relative="1" as="geometry">
            <mxPoint x="480" y="500" as="sourcePoint" />
            <Array as="points">
              <mxPoint x="565" y="500" />
            </Array>
            <mxPoint x="860" y="500" as="targetPoint" />
          </mxGeometry>
        </mxCell>
        <mxCell id="czJXQbk37fORs2e5UW5i-17" value="TripService" style="shape=umlLifeline;perimeter=lifelinePerimeter;whiteSpace=wrap;html=1;container=0;dropTarget=0;collapsible=0;recursiveResize=0;outlineConnect=0;portConstraint=eastwest;newEdgeStyle={&quot;edgeStyle&quot;:&quot;elbowEdgeStyle&quot;,&quot;elbow&quot;:&quot;vertical&quot;,&quot;curved&quot;:0,&quot;rounded&quot;:0};fontSize=14;" parent="1" vertex="1">
          <mxGeometry x="795" y="280" width="100" height="600" as="geometry" />
        </mxCell>
        <mxCell id="czJXQbk37fORs2e5UW5i-37" value="" style="html=1;points=[];perimeter=orthogonalPerimeter;outlineConnect=0;targetShapes=umlLifeline;portConstraint=eastwest;newEdgeStyle={&quot;edgeStyle&quot;:&quot;elbowEdgeStyle&quot;,&quot;elbow&quot;:&quot;vertical&quot;,&quot;curved&quot;:0,&quot;rounded&quot;:0};" parent="czJXQbk37fORs2e5UW5i-17" vertex="1">
          <mxGeometry x="45" y="220" width="10" height="50" as="geometry" />
        </mxCell>
        <mxCell id="czJXQbk37fORs2e5UW5i-18" value="&lt;span style=&quot;color: rgb(0, 0, 0); font-family: Helvetica; font-style: normal; font-variant-ligatures: normal; font-variant-caps: normal; font-weight: 400; letter-spacing: normal; orphans: 2; text-align: center; text-indent: 0px; text-transform: none; widows: 2; word-spacing: 0px; -webkit-text-stroke-width: 0px; white-space: nowrap; background-color: rgb(255, 255, 255); text-decoration-thickness: initial; text-decoration-style: initial; text-decoration-color: initial; float: none; display: inline !important;&quot;&gt;Truy vấn danh sách chuyến xe&lt;/span&gt;" style="text;whiteSpace=wrap;html=1;fontSize=14;" parent="1" vertex="1">
          <mxGeometry x="750" y="510" width="150" height="40" as="geometry" />
        </mxCell>
        <mxCell id="czJXQbk37fORs2e5UW5i-19" value="Trả danh sách chuyến xe" style="html=1;verticalAlign=bottom;endArrow=block;edgeStyle=elbowEdgeStyle;elbow=horizontal;curved=0;rounded=0;fontSize=14;dashed=1;entryX=0.552;entryY=0.447;entryDx=0;entryDy=0;entryPerimeter=0;" parent="1" target="czJXQbk37fORs2e5UW5i-4" edge="1">
          <mxGeometry relative="1" as="geometry">
            <mxPoint x="840" y="548" as="sourcePoint" />
            <Array as="points">
              <mxPoint x="800" y="550" />
            </Array>
            <mxPoint x="540" y="550" as="targetPoint" />
          </mxGeometry>
        </mxCell>
        <mxCell id="czJXQbk37fORs2e5UW5i-20" value="Chọn chuyến và ghế ngồi" style="html=1;verticalAlign=bottom;endArrow=block;edgeStyle=elbowEdgeStyle;elbow=vertical;curved=0;rounded=0;fontSize=14;" parent="1" source="czJXQbk37fORs2e5UW5i-33" target="czJXQbk37fORs2e5UW5i-34" edge="1">
          <mxGeometry relative="1" as="geometry">
            <mxPoint x="290" y="570" as="sourcePoint" />
            <Array as="points">
              <mxPoint x="365" y="570" />
            </Array>
            <mxPoint x="460" y="570" as="targetPoint" />
          </mxGeometry>
        </mxCell>
        <mxCell id="czJXQbk37fORs2e5UW5i-21" value="Gửi yêu cầu đặt vé" style="html=1;verticalAlign=bottom;endArrow=block;edgeStyle=elbowEdgeStyle;elbow=vertical;curved=0;rounded=0;fontSize=14;" parent="1" target="czJXQbk37fORs2e5UW5i-38" edge="1">
          <mxGeometry relative="1" as="geometry">
            <mxPoint x="480" y="600" as="sourcePoint" />
            <Array as="points">
              <mxPoint x="565" y="600" />
            </Array>
            <mxPoint x="650" y="600" as="targetPoint" />
          </mxGeometry>
        </mxCell>
        <mxCell id="czJXQbk37fORs2e5UW5i-22" value="BookingService" style="shape=umlLifeline;perimeter=lifelinePerimeter;whiteSpace=wrap;html=1;container=0;dropTarget=0;collapsible=0;recursiveResize=0;outlineConnect=0;portConstraint=eastwest;newEdgeStyle={&quot;edgeStyle&quot;:&quot;elbowEdgeStyle&quot;,&quot;elbow&quot;:&quot;vertical&quot;,&quot;curved&quot;:0,&quot;rounded&quot;:0};fontSize=14;" parent="1" vertex="1">
          <mxGeometry x="975" y="280" width="105" height="600" as="geometry" />
        </mxCell>
        <mxCell id="czJXQbk37fORs2e5UW5i-38" value="" style="html=1;points=[];perimeter=orthogonalPerimeter;outlineConnect=0;targetShapes=umlLifeline;portConstraint=eastwest;newEdgeStyle={&quot;edgeStyle&quot;:&quot;elbowEdgeStyle&quot;,&quot;elbow&quot;:&quot;vertical&quot;,&quot;curved&quot;:0,&quot;rounded&quot;:0};" parent="czJXQbk37fORs2e5UW5i-22" vertex="1">
          <mxGeometry x="45" y="320" width="10" height="60" as="geometry" />
        </mxCell>
        <mxCell id="czJXQbk37fORs2e5UW5i-23" value="&lt;span style=&quot;color: rgb(0, 0, 0); font-family: Helvetica; font-style: normal; font-variant-ligatures: normal; font-variant-caps: normal; font-weight: 400; letter-spacing: normal; orphans: 2; text-align: center; text-indent: 0px; text-transform: none; widows: 2; word-spacing: 0px; -webkit-text-stroke-width: 0px; white-space: nowrap; background-color: rgb(255, 255, 255); text-decoration-thickness: initial; text-decoration-style: initial; text-decoration-color: initial; float: none; display: inline !important;&quot;&gt;Kiểm tra chỗ trống &amp;amp; ghi nhận đặt chỗ&lt;/span&gt;" style="text;whiteSpace=wrap;html=1;fontSize=14;" parent="1" vertex="1">
          <mxGeometry x="910" y="610" width="150" height="40" as="geometry" />
        </mxCell>
        <mxCell id="czJXQbk37fORs2e5UW5i-24" value="Xác nhận đặt vé" style="html=1;verticalAlign=bottom;endArrow=block;edgeStyle=elbowEdgeStyle;elbow=horizontal;curved=0;rounded=0;fontSize=14;dashed=1;" parent="1" edge="1">
          <mxGeometry relative="1" as="geometry">
            <mxPoint x="1020" y="660" as="sourcePoint" />
            <Array as="points">
              <mxPoint x="970" y="660" />
            </Array>
            <mxPoint x="490" y="660" as="targetPoint" />
          </mxGeometry>
        </mxCell>
        <mxCell id="czJXQbk37fORs2e5UW5i-25" value="Nhập thông tin thanh toán" style="html=1;verticalAlign=bottom;endArrow=block;edgeStyle=elbowEdgeStyle;elbow=vertical;curved=0;rounded=0;fontSize=14;" parent="1" target="czJXQbk37fORs2e5UW5i-34" edge="1">
          <mxGeometry relative="1" as="geometry">
            <mxPoint x="260" y="680" as="sourcePoint" />
            <Array as="points">
              <mxPoint x="365" y="680" />
            </Array>
            <mxPoint x="450" y="680" as="targetPoint" />
          </mxGeometry>
        </mxCell>
        <mxCell id="czJXQbk37fORs2e5UW5i-27" value="Gửi thông tin ngân hàng" style="html=1;verticalAlign=bottom;endArrow=block;edgeStyle=elbowEdgeStyle;elbow=vertical;curved=0;rounded=0;fontSize=14;" parent="1" target="czJXQbk37fORs2e5UW5i-39" edge="1">
          <mxGeometry relative="1" as="geometry">
            <mxPoint x="480" y="720" as="sourcePoint" />
            <Array as="points">
              <mxPoint x="565" y="720" />
            </Array>
            <mxPoint x="1210" y="720" as="targetPoint" />
          </mxGeometry>
        </mxCell>
        <mxCell id="czJXQbk37fORs2e5UW5i-30" value="PaymentService" style="shape=umlLifeline;perimeter=lifelinePerimeter;whiteSpace=wrap;html=1;container=0;dropTarget=0;collapsible=0;recursiveResize=0;outlineConnect=0;portConstraint=eastwest;newEdgeStyle={&quot;edgeStyle&quot;:&quot;elbowEdgeStyle&quot;,&quot;elbow&quot;:&quot;vertical&quot;,&quot;curved&quot;:0,&quot;rounded&quot;:0};fontSize=14;" parent="1" vertex="1">
          <mxGeometry x="1150" y="280" width="110" height="600" as="geometry" />
        </mxCell>
        <mxCell id="czJXQbk37fORs2e5UW5i-39" value="" style="html=1;points=[];perimeter=orthogonalPerimeter;outlineConnect=0;targetShapes=umlLifeline;portConstraint=eastwest;newEdgeStyle={&quot;edgeStyle&quot;:&quot;elbowEdgeStyle&quot;,&quot;elbow&quot;:&quot;vertical&quot;,&quot;curved&quot;:0,&quot;rounded&quot;:0};" parent="czJXQbk37fORs2e5UW5i-30" vertex="1">
          <mxGeometry x="50" y="440" width="10" height="80" as="geometry" />
        </mxCell>
        <mxCell id="czJXQbk37fORs2e5UW5i-31" value="Thông báo kết quả thanh toán" style="html=1;verticalAlign=bottom;endArrow=block;edgeStyle=elbowEdgeStyle;elbow=horizontal;curved=0;rounded=0;fontSize=14;dashed=1;" parent="1" edge="1">
          <mxGeometry relative="1" as="geometry">
            <mxPoint x="1210" y="800" as="sourcePoint" />
            <Array as="points">
              <mxPoint x="1191" y="800" />
            </Array>
            <mxPoint x="490" y="800" as="targetPoint" />
          </mxGeometry>
        </mxCell>
        <mxCell id="czJXQbk37fORs2e5UW5i-32" value="Gửi vé điện tử / xác nhận" style="html=1;verticalAlign=bottom;endArrow=block;edgeStyle=elbowEdgeStyle;elbow=horizontal;curved=0;rounded=0;fontSize=14;dashed=1;" parent="1" source="czJXQbk37fORs2e5UW5i-4" target="czJXQbk37fORs2e5UW5i-33" edge="1">
          <mxGeometry relative="1" as="geometry">
            <mxPoint x="455" y="830" as="sourcePoint" />
            <Array as="points">
              <mxPoint x="380" y="830" />
            </Array>
            <mxPoint x="290" y="830" as="targetPoint" />
          </mxGeometry>
        </mxCell>
        <mxCell id="czJXQbk37fORs2e5UW5i-14" value="Customer" style="shape=umlLifeline;perimeter=lifelinePerimeter;whiteSpace=wrap;html=1;container=0;dropTarget=0;collapsible=0;recursiveResize=0;outlineConnect=0;portConstraint=eastwest;newEdgeStyle={&quot;edgeStyle&quot;:&quot;elbowEdgeStyle&quot;,&quot;elbow&quot;:&quot;vertical&quot;,&quot;curved&quot;:0,&quot;rounded&quot;:0};fontSize=14;" parent="1" vertex="1">
          <mxGeometry x="210" y="280" width="100" height="600" as="geometry" />
        </mxCell>
        <mxCell id="czJXQbk37fORs2e5UW5i-33" value="" style="html=1;points=[];perimeter=orthogonalPerimeter;outlineConnect=0;targetShapes=umlLifeline;portConstraint=eastwest;newEdgeStyle={&quot;edgeStyle&quot;:&quot;elbowEdgeStyle&quot;,&quot;elbow&quot;:&quot;vertical&quot;,&quot;curved&quot;:0,&quot;rounded&quot;:0};" parent="czJXQbk37fORs2e5UW5i-14" vertex="1">
          <mxGeometry x="45" y="60" width="10" height="520" as="geometry" />
        </mxCell>
        <mxCell id="czJXQbk37fORs2e5UW5i-36" value="" style="html=1;points=[];perimeter=orthogonalPerimeter;outlineConnect=0;targetShapes=umlLifeline;portConstraint=eastwest;newEdgeStyle={&quot;edgeStyle&quot;:&quot;elbowEdgeStyle&quot;,&quot;elbow&quot;:&quot;vertical&quot;,&quot;curved&quot;:0,&quot;rounded&quot;:0};" parent="1" vertex="1">
          <mxGeometry x="665" y="380" width="10" height="70" as="geometry" />
        </mxCell>
        <mxCell id="czJXQbk37fORs2e5UW5i-11" value="&lt;span style=&quot;color: rgb(0, 0, 0); font-family: Helvetica; font-style: normal; font-variant-ligatures: normal; font-variant-caps: normal; font-weight: 400; letter-spacing: normal; orphans: 2; text-align: center; text-indent: 0px; text-transform: none; widows: 2; word-spacing: 0px; -webkit-text-stroke-width: 0px; white-space: nowrap; background-color: rgb(255, 255, 255); text-decoration-thickness: initial; text-decoration-style: initial; text-decoration-color: initial; float: none; display: inline !important;&quot;&gt;Gửi thông tin đăng nhập&lt;/span&gt;" style="text;whiteSpace=wrap;html=1;fontSize=14;" parent="1" vertex="1">
          <mxGeometry x="600" y="395" width="150" height="40" as="geometry" />
        </mxCell>
        <mxCell id="czJXQbk37fORs2e5UW5i-4" value="UI" style="shape=umlLifeline;perimeter=lifelinePerimeter;whiteSpace=wrap;html=1;container=0;dropTarget=0;collapsible=0;recursiveResize=0;outlineConnect=0;portConstraint=eastwest;newEdgeStyle={&quot;edgeStyle&quot;:&quot;elbowEdgeStyle&quot;,&quot;elbow&quot;:&quot;vertical&quot;,&quot;curved&quot;:0,&quot;rounded&quot;:0};fontSize=14;" parent="1" vertex="1">
          <mxGeometry x="430" y="280" width="100" height="600" as="geometry" />
        </mxCell>
        <mxCell id="czJXQbk37fORs2e5UW5i-34" value="" style="html=1;points=[];perimeter=orthogonalPerimeter;outlineConnect=0;targetShapes=umlLifeline;portConstraint=eastwest;newEdgeStyle={&quot;edgeStyle&quot;:&quot;elbowEdgeStyle&quot;,&quot;elbow&quot;:&quot;vertical&quot;,&quot;curved&quot;:0,&quot;rounded&quot;:0};" parent="czJXQbk37fORs2e5UW5i-4" vertex="1">
          <mxGeometry x="45" y="80" width="10" height="470" as="geometry" />
        </mxCell>
        <mxCell id="czJXQbk37fORs2e5UW5i-28" value="&lt;span style=&quot;color: rgb(0, 0, 0); font-family: Helvetica; font-style: normal; font-variant-ligatures: normal; font-variant-caps: normal; font-weight: 400; letter-spacing: normal; orphans: 2; text-align: center; text-indent: 0px; text-transform: none; widows: 2; word-spacing: 0px; -webkit-text-stroke-width: 0px; white-space: nowrap; background-color: rgb(255, 255, 255); text-decoration-thickness: initial; text-decoration-style: initial; text-decoration-color: initial; float: none; display: inline !important;&quot;&gt;Xác nhận thanh toán&lt;/span&gt;" style="text;whiteSpace=wrap;html=1;fontSize=14;" parent="1" vertex="1">
          <mxGeometry x="1140" y="750" width="150" height="40" as="geometry" />
        </mxCell>
        <mxCell id="2wfrdfqEo3t6nH3sHRIx-3" value="return" style="html=1;verticalAlign=bottom;endArrow=open;dashed=1;endSize=8;edgeStyle=elbowEdgeStyle;elbow=vertical;curved=0;rounded=0;" edge="1" parent="1">
          <mxGeometry relative="1" as="geometry">
            <mxPoint x="1410" y="548.82" as="targetPoint" />
            <Array as="points">
              <mxPoint x="1505" y="548.82" />
            </Array>
            <mxPoint x="1580" y="548.82" as="sourcePoint" />
          </mxGeometry>
        </mxCell>
        <mxCell id="2wfrdfqEo3t6nH3sHRIx-5" value="return" style="html=1;verticalAlign=bottom;endArrow=open;dashed=1;endSize=8;edgeStyle=elbowEdgeStyle;elbow=vertical;curved=0;rounded=0;" edge="1" parent="1">
          <mxGeometry relative="1" as="geometry">
            <mxPoint x="1575" y="488.82" as="targetPoint" />
            <Array as="points">
              <mxPoint x="1490" y="488.82" />
            </Array>
            <mxPoint x="1410" y="488.82" as="sourcePoint" />
          </mxGeometry>
        </mxCell>
        <mxCell id="2wfrdfqEo3t6nH3sHRIx-7" value="" style="html=1;points=[];perimeter=orthogonalPerimeter;outlineConnect=0;targetShapes=umlLifeline;portConstraint=eastwest;newEdgeStyle={&quot;edgeStyle&quot;:&quot;elbowEdgeStyle&quot;,&quot;elbow&quot;:&quot;vertical&quot;,&quot;curved&quot;:0,&quot;rounded&quot;:0};" vertex="1" parent="1">
          <mxGeometry x="1590" y="320" width="10" height="170" as="geometry" />
        </mxCell>
        <mxCell id="2wfrdfqEo3t6nH3sHRIx-8" value="Nhập điểm đi, điểm đến, ngày&amp;nbsp;" style="html=1;verticalAlign=bottom;endArrow=block;edgeStyle=elbowEdgeStyle;elbow=vertical;curved=0;rounded=0;fontSize=14;" edge="1" parent="1">
          <mxGeometry relative="1" as="geometry">
            <mxPoint x="1739.1666666666665" y="380" as="sourcePoint" />
            <Array as="points">
              <mxPoint x="1855" y="380" />
            </Array>
            <mxPoint x="1955" y="380" as="targetPoint" />
          </mxGeometry>
        </mxCell>
        <mxCell id="2wfrdfqEo3t6nH3sHRIx-10" value="TripService" style="shape=umlLifeline;perimeter=lifelinePerimeter;whiteSpace=wrap;html=1;container=0;dropTarget=0;collapsible=0;recursiveResize=0;outlineConnect=0;portConstraint=eastwest;newEdgeStyle={&quot;edgeStyle&quot;:&quot;elbowEdgeStyle&quot;,&quot;elbow&quot;:&quot;vertical&quot;,&quot;curved&quot;:0,&quot;rounded&quot;:0};fontSize=14;" vertex="1" parent="1">
          <mxGeometry x="2220" y="280" width="105" height="440" as="geometry" />
        </mxCell>
        <mxCell id="2wfrdfqEo3t6nH3sHRIx-11" value="" style="html=1;points=[];perimeter=orthogonalPerimeter;outlineConnect=0;targetShapes=umlLifeline;portConstraint=eastwest;newEdgeStyle={&quot;edgeStyle&quot;:&quot;elbowEdgeStyle&quot;,&quot;elbow&quot;:&quot;vertical&quot;,&quot;curved&quot;:0,&quot;rounded&quot;:0};" vertex="1" parent="2wfrdfqEo3t6nH3sHRIx-10">
          <mxGeometry x="45" y="120" width="10" height="90" as="geometry" />
        </mxCell>
        <mxCell id="2wfrdfqEo3t6nH3sHRIx-12" value="&lt;span style=&quot;color: rgb(0, 0, 0); font-family: Helvetica; font-style: normal; font-variant-ligatures: normal; font-variant-caps: normal; font-weight: 400; letter-spacing: normal; orphans: 2; text-align: center; text-indent: 0px; text-transform: none; widows: 2; word-spacing: 0px; -webkit-text-stroke-width: 0px; white-space: nowrap; background-color: rgb(255, 255, 255); text-decoration-thickness: initial; text-decoration-style: initial; text-decoration-color: initial; float: none; display: inline !important;&quot;&gt;Thực hiện tìm kiếm&lt;/span&gt;" style="text;whiteSpace=wrap;html=1;fontSize=14;" vertex="1" parent="2wfrdfqEo3t6nH3sHRIx-10">
          <mxGeometry x="-10" y="145" width="150" height="40" as="geometry" />
        </mxCell>
        <mxCell id="2wfrdfqEo3t6nH3sHRIx-14" value="Chọn chuyến và ghế ngồi" style="html=1;verticalAlign=bottom;endArrow=block;edgeStyle=elbowEdgeStyle;elbow=vertical;curved=0;rounded=0;fontSize=14;" edge="1" parent="1">
          <mxGeometry relative="1" as="geometry">
            <mxPoint x="1745" y="520" as="sourcePoint" />
            <Array as="points">
              <mxPoint x="1845" y="520" />
            </Array>
            <mxPoint x="1955" y="520" as="targetPoint" />
          </mxGeometry>
        </mxCell>
        <mxCell id="2wfrdfqEo3t6nH3sHRIx-15" value="Gửi yêu cầu đặt vé" style="html=1;verticalAlign=bottom;endArrow=block;edgeStyle=elbowEdgeStyle;elbow=vertical;curved=0;rounded=0;fontSize=14;" edge="1" parent="1" target="2wfrdfqEo3t6nH3sHRIx-17">
          <mxGeometry relative="1" as="geometry">
            <mxPoint x="1960" y="540" as="sourcePoint" />
            <Array as="points">
              <mxPoint x="2045" y="540" />
            </Array>
            <mxPoint x="2495" y="540" as="targetPoint" />
          </mxGeometry>
        </mxCell>
        <mxCell id="2wfrdfqEo3t6nH3sHRIx-16" value="Database" style="shape=umlLifeline;perimeter=lifelinePerimeter;whiteSpace=wrap;html=1;container=0;dropTarget=0;collapsible=0;recursiveResize=0;outlineConnect=0;portConstraint=eastwest;newEdgeStyle={&quot;edgeStyle&quot;:&quot;elbowEdgeStyle&quot;,&quot;elbow&quot;:&quot;vertical&quot;,&quot;curved&quot;:0,&quot;rounded&quot;:0};fontSize=14;" vertex="1" parent="1">
          <mxGeometry x="2650" y="280" width="105" height="440" as="geometry" />
        </mxCell>
        <mxCell id="2wfrdfqEo3t6nH3sHRIx-37" value="" style="html=1;points=[];perimeter=orthogonalPerimeter;outlineConnect=0;targetShapes=umlLifeline;portConstraint=eastwest;newEdgeStyle={&quot;edgeStyle&quot;:&quot;elbowEdgeStyle&quot;,&quot;elbow&quot;:&quot;vertical&quot;,&quot;curved&quot;:0,&quot;rounded&quot;:0};" vertex="1" parent="2wfrdfqEo3t6nH3sHRIx-16">
          <mxGeometry x="47.5" y="130" width="10" height="60" as="geometry" />
        </mxCell>
        <mxCell id="2wfrdfqEo3t6nH3sHRIx-19" value="Ghi nhận đặt chỗ" style="html=1;verticalAlign=bottom;endArrow=block;edgeStyle=elbowEdgeStyle;elbow=horizontal;curved=0;rounded=0;fontSize=14;dashed=1;" edge="1" parent="1" target="2wfrdfqEo3t6nH3sHRIx-31">
          <mxGeometry relative="1" as="geometry">
            <mxPoint x="2527.5" y="640" as="sourcePoint" />
            <Array as="points">
              <mxPoint x="2453" y="640" />
            </Array>
            <mxPoint x="1973" y="640" as="targetPoint" />
          </mxGeometry>
        </mxCell>
        <mxCell id="2wfrdfqEo3t6nH3sHRIx-22" value="BookingService" style="shape=umlLifeline;perimeter=lifelinePerimeter;whiteSpace=wrap;html=1;container=0;dropTarget=0;collapsible=0;recursiveResize=0;outlineConnect=0;portConstraint=eastwest;newEdgeStyle={&quot;edgeStyle&quot;:&quot;elbowEdgeStyle&quot;,&quot;elbow&quot;:&quot;vertical&quot;,&quot;curved&quot;:0,&quot;rounded&quot;:0};fontSize=14;" vertex="1" parent="1">
          <mxGeometry x="2470" y="280" width="110" height="440" as="geometry" />
        </mxCell>
        <mxCell id="2wfrdfqEo3t6nH3sHRIx-17" value="" style="html=1;points=[];perimeter=orthogonalPerimeter;outlineConnect=0;targetShapes=umlLifeline;portConstraint=eastwest;newEdgeStyle={&quot;edgeStyle&quot;:&quot;elbowEdgeStyle&quot;,&quot;elbow&quot;:&quot;vertical&quot;,&quot;curved&quot;:0,&quot;rounded&quot;:0};" vertex="1" parent="2wfrdfqEo3t6nH3sHRIx-22">
          <mxGeometry x="50" y="260" width="10" height="100" as="geometry" />
        </mxCell>
        <mxCell id="2wfrdfqEo3t6nH3sHRIx-26" value="Customer" style="shape=umlLifeline;perimeter=lifelinePerimeter;whiteSpace=wrap;html=1;container=0;dropTarget=0;collapsible=0;recursiveResize=0;outlineConnect=0;portConstraint=eastwest;newEdgeStyle={&quot;edgeStyle&quot;:&quot;elbowEdgeStyle&quot;,&quot;elbow&quot;:&quot;vertical&quot;,&quot;curved&quot;:0,&quot;rounded&quot;:0};fontSize=14;" vertex="1" parent="1">
          <mxGeometry x="1690" y="280" width="100" height="440" as="geometry" />
        </mxCell>
        <mxCell id="2wfrdfqEo3t6nH3sHRIx-27" value="" style="html=1;points=[];perimeter=orthogonalPerimeter;outlineConnect=0;targetShapes=umlLifeline;portConstraint=eastwest;newEdgeStyle={&quot;edgeStyle&quot;:&quot;elbowEdgeStyle&quot;,&quot;elbow&quot;:&quot;vertical&quot;,&quot;curved&quot;:0,&quot;rounded&quot;:0};" vertex="1" parent="2wfrdfqEo3t6nH3sHRIx-26">
          <mxGeometry x="45" y="80" width="10" height="340" as="geometry" />
        </mxCell>
        <mxCell id="2wfrdfqEo3t6nH3sHRIx-30" value="UI" style="shape=umlLifeline;perimeter=lifelinePerimeter;whiteSpace=wrap;html=1;container=0;dropTarget=0;collapsible=0;recursiveResize=0;outlineConnect=0;portConstraint=eastwest;newEdgeStyle={&quot;edgeStyle&quot;:&quot;elbowEdgeStyle&quot;,&quot;elbow&quot;:&quot;vertical&quot;,&quot;curved&quot;:0,&quot;rounded&quot;:0};fontSize=14;" vertex="1" parent="1">
          <mxGeometry x="1910" y="280" width="100" height="440" as="geometry" />
        </mxCell>
        <mxCell id="2wfrdfqEo3t6nH3sHRIx-31" value="" style="html=1;points=[];perimeter=orthogonalPerimeter;outlineConnect=0;targetShapes=umlLifeline;portConstraint=eastwest;newEdgeStyle={&quot;edgeStyle&quot;:&quot;elbowEdgeStyle&quot;,&quot;elbow&quot;:&quot;vertical&quot;,&quot;curved&quot;:0,&quot;rounded&quot;:0};" vertex="1" parent="2wfrdfqEo3t6nH3sHRIx-30">
          <mxGeometry x="45" y="80" width="10" height="340" as="geometry" />
        </mxCell>
        <mxCell id="2wfrdfqEo3t6nH3sHRIx-9" value="Gửi thông tin tìm kiếm chuyến xe" style="html=1;verticalAlign=bottom;endArrow=block;edgeStyle=elbowEdgeStyle;elbow=vertical;curved=0;rounded=0;fontSize=14;" edge="1" parent="1" source="2wfrdfqEo3t6nH3sHRIx-31" target="2wfrdfqEo3t6nH3sHRIx-11">
          <mxGeometry relative="1" as="geometry">
            <mxPoint x="1970" y="400" as="sourcePoint" />
            <Array as="points">
              <mxPoint x="1990" y="400" />
            </Array>
            <mxPoint x="2285" y="400" as="targetPoint" />
            <mxPoint as="offset" />
          </mxGeometry>
        </mxCell>
        <mxCell id="2wfrdfqEo3t6nH3sHRIx-13" value="Trả danh sách chuyến xe" style="html=1;verticalAlign=bottom;endArrow=block;edgeStyle=elbowEdgeStyle;elbow=horizontal;curved=0;rounded=0;fontSize=14;dashed=1;" edge="1" parent="1">
          <mxGeometry relative="1" as="geometry">
            <mxPoint x="2265" y="489.23" as="sourcePoint" />
            <Array as="points">
              <mxPoint x="2225" y="491.23" />
            </Array>
            <mxPoint x="1970" y="489.23" as="targetPoint" />
          </mxGeometry>
        </mxCell>
        <mxCell id="2wfrdfqEo3t6nH3sHRIx-39" value="Gửi thông tin truy vấn" style="html=1;verticalAlign=bottom;endArrow=block;edgeStyle=elbowEdgeStyle;elbow=vertical;curved=0;rounded=0;fontSize=14;" edge="1" parent="1" target="2wfrdfqEo3t6nH3sHRIx-37">
          <mxGeometry relative="1" as="geometry">
            <mxPoint x="2280" y="415" as="sourcePoint" />
            <Array as="points">
              <mxPoint x="2295" y="414.62" />
            </Array>
            <mxPoint x="2750" y="415" as="targetPoint" />
            <mxPoint as="offset" />
          </mxGeometry>
        </mxCell>
        <mxCell id="2wfrdfqEo3t6nH3sHRIx-42" value="Trả danh sách chuyến xe" style="html=1;verticalAlign=bottom;endArrow=block;edgeStyle=elbowEdgeStyle;elbow=horizontal;curved=0;rounded=0;fontSize=14;dashed=1;" edge="1" parent="1">
          <mxGeometry relative="1" as="geometry">
            <mxPoint x="2695.8542159598214" y="470" as="sourcePoint" />
            <Array as="points">
              <mxPoint x="2529.14" y="472" />
            </Array>
            <mxPoint x="2274.14" y="470" as="targetPoint" />
          </mxGeometry>
        </mxCell>
        <mxCell id="2wfrdfqEo3t6nH3sHRIx-50" value="Chọn ngân hàng thanh toán" style="html=1;verticalAlign=bottom;endArrow=block;edgeStyle=elbowEdgeStyle;elbow=vertical;curved=0;rounded=0;fontSize=14;" edge="1" parent="1" source="2wfrdfqEo3t6nH3sHRIx-71" target="2wfrdfqEo3t6nH3sHRIx-76">
          <mxGeometry x="0.0037" relative="1" as="geometry">
            <mxPoint x="1680" y="960" as="sourcePoint" />
            <Array as="points">
              <mxPoint x="1765" y="960" />
            </Array>
            <mxPoint x="1860" y="960" as="targetPoint" />
            <mxPoint as="offset" />
          </mxGeometry>
        </mxCell>
        <mxCell id="2wfrdfqEo3t6nH3sHRIx-58" value="Trả về kết quả thanh toán" style="html=1;verticalAlign=bottom;endArrow=block;edgeStyle=elbowEdgeStyle;elbow=horizontal;curved=0;rounded=0;fontSize=14;dashed=1;entryX=0.552;entryY=0.447;entryDx=0;entryDy=0;entryPerimeter=0;" edge="1" parent="1">
          <mxGeometry relative="1" as="geometry">
            <mxPoint x="2184.5" y="1080" as="sourcePoint" />
            <Array as="points">
              <mxPoint x="2190" y="1081.8" />
            </Array>
            <mxPoint x="1875.1999999999998" y="1080" as="targetPoint" />
            <mxPoint as="offset" />
          </mxGeometry>
        </mxCell>
        <mxCell id="2wfrdfqEo3t6nH3sHRIx-67" value="PaymentService" style="shape=umlLifeline;perimeter=lifelinePerimeter;whiteSpace=wrap;html=1;container=0;dropTarget=0;collapsible=0;recursiveResize=0;outlineConnect=0;portConstraint=eastwest;newEdgeStyle={&quot;edgeStyle&quot;:&quot;elbowEdgeStyle&quot;,&quot;elbow&quot;:&quot;vertical&quot;,&quot;curved&quot;:0,&quot;rounded&quot;:0};fontSize=14;" vertex="1" parent="1">
          <mxGeometry x="2130" y="880" width="110" height="280" as="geometry" />
        </mxCell>
        <mxCell id="2wfrdfqEo3t6nH3sHRIx-68" value="" style="html=1;points=[];perimeter=orthogonalPerimeter;outlineConnect=0;targetShapes=umlLifeline;portConstraint=eastwest;newEdgeStyle={&quot;edgeStyle&quot;:&quot;elbowEdgeStyle&quot;,&quot;elbow&quot;:&quot;vertical&quot;,&quot;curved&quot;:0,&quot;rounded&quot;:0};" vertex="1" parent="2wfrdfqEo3t6nH3sHRIx-67">
          <mxGeometry x="50" y="100" width="10" height="100" as="geometry" />
        </mxCell>
        <mxCell id="2wfrdfqEo3t6nH3sHRIx-70" value="Gửi vé điện tử / xác nhận" style="html=1;verticalAlign=bottom;endArrow=block;edgeStyle=elbowEdgeStyle;elbow=horizontal;curved=0;rounded=0;fontSize=14;dashed=1;" edge="1" parent="1">
          <mxGeometry relative="1" as="geometry">
            <mxPoint x="1869.4999999999995" y="1099.38" as="sourcePoint" />
            <Array as="points">
              <mxPoint x="1770" y="1099.38" />
            </Array>
            <mxPoint x="1655" y="1099.38" as="targetPoint" />
          </mxGeometry>
        </mxCell>
        <mxCell id="2wfrdfqEo3t6nH3sHRIx-71" value="Customer" style="shape=umlLifeline;perimeter=lifelinePerimeter;whiteSpace=wrap;html=1;container=0;dropTarget=0;collapsible=0;recursiveResize=0;outlineConnect=0;portConstraint=eastwest;newEdgeStyle={&quot;edgeStyle&quot;:&quot;elbowEdgeStyle&quot;,&quot;elbow&quot;:&quot;vertical&quot;,&quot;curved&quot;:0,&quot;rounded&quot;:0};fontSize=14;" vertex="1" parent="1">
          <mxGeometry x="1600" y="880" width="100" height="280" as="geometry" />
        </mxCell>
        <mxCell id="2wfrdfqEo3t6nH3sHRIx-72" value="" style="html=1;points=[];perimeter=orthogonalPerimeter;outlineConnect=0;targetShapes=umlLifeline;portConstraint=eastwest;newEdgeStyle={&quot;edgeStyle&quot;:&quot;elbowEdgeStyle&quot;,&quot;elbow&quot;:&quot;vertical&quot;,&quot;curved&quot;:0,&quot;rounded&quot;:0};" vertex="1" parent="2wfrdfqEo3t6nH3sHRIx-71">
          <mxGeometry x="45" y="60" width="10" height="190" as="geometry" />
        </mxCell>
        <mxCell id="2wfrdfqEo3t6nH3sHRIx-75" value="UI" style="shape=umlLifeline;perimeter=lifelinePerimeter;whiteSpace=wrap;html=1;container=0;dropTarget=0;collapsible=0;recursiveResize=0;outlineConnect=0;portConstraint=eastwest;newEdgeStyle={&quot;edgeStyle&quot;:&quot;elbowEdgeStyle&quot;,&quot;elbow&quot;:&quot;vertical&quot;,&quot;curved&quot;:0,&quot;rounded&quot;:0};fontSize=14;" vertex="1" parent="1">
          <mxGeometry x="1820" y="880" width="100" height="280" as="geometry" />
        </mxCell>
        <mxCell id="2wfrdfqEo3t6nH3sHRIx-76" value="" style="html=1;points=[];perimeter=orthogonalPerimeter;outlineConnect=0;targetShapes=umlLifeline;portConstraint=eastwest;newEdgeStyle={&quot;edgeStyle&quot;:&quot;elbowEdgeStyle&quot;,&quot;elbow&quot;:&quot;vertical&quot;,&quot;curved&quot;:0,&quot;rounded&quot;:0};" vertex="1" parent="2wfrdfqEo3t6nH3sHRIx-75">
          <mxGeometry x="45" y="80" width="10" height="140" as="geometry" />
        </mxCell>
        <mxCell id="2wfrdfqEo3t6nH3sHRIx-77" value="Database" style="shape=umlLifeline;perimeter=lifelinePerimeter;whiteSpace=wrap;html=1;container=0;dropTarget=0;collapsible=0;recursiveResize=0;outlineConnect=0;portConstraint=eastwest;newEdgeStyle={&quot;edgeStyle&quot;:&quot;elbowEdgeStyle&quot;,&quot;elbow&quot;:&quot;vertical&quot;,&quot;curved&quot;:0,&quot;rounded&quot;:0};fontSize=14;" vertex="1" parent="1">
          <mxGeometry x="2400" y="880" width="105" height="280" as="geometry" />
        </mxCell>
        <mxCell id="2wfrdfqEo3t6nH3sHRIx-78" value="" style="html=1;points=[];perimeter=orthogonalPerimeter;outlineConnect=0;targetShapes=umlLifeline;portConstraint=eastwest;newEdgeStyle={&quot;edgeStyle&quot;:&quot;elbowEdgeStyle&quot;,&quot;elbow&quot;:&quot;vertical&quot;,&quot;curved&quot;:0,&quot;rounded&quot;:0};" vertex="1" parent="2wfrdfqEo3t6nH3sHRIx-77">
          <mxGeometry x="47.5" y="120" width="10" height="60" as="geometry" />
        </mxCell>
        <mxCell id="2wfrdfqEo3t6nH3sHRIx-66" value="Gửi thông tin ngân hàng" style="html=1;verticalAlign=bottom;endArrow=block;edgeStyle=elbowEdgeStyle;elbow=vertical;curved=0;rounded=0;fontSize=14;" edge="1" parent="1" target="2wfrdfqEo3t6nH3sHRIx-68">
          <mxGeometry relative="1" as="geometry">
            <mxPoint x="1875" y="980" as="sourcePoint" />
            <Array as="points">
              <mxPoint x="1960" y="980" />
            </Array>
            <mxPoint x="2450" y="980" as="targetPoint" />
          </mxGeometry>
        </mxCell>
        <mxCell id="2wfrdfqEo3t6nH3sHRIx-79" value="Gửi yêu cầu cập nhật" style="html=1;verticalAlign=bottom;endArrow=block;edgeStyle=elbowEdgeStyle;elbow=vertical;curved=0;rounded=0;fontSize=14;" edge="1" parent="1" target="2wfrdfqEo3t6nH3sHRIx-77">
          <mxGeometry relative="1" as="geometry">
            <mxPoint x="2190" y="1000" as="sourcePoint" />
            <Array as="points">
              <mxPoint x="2270" y="1000" />
            </Array>
            <mxPoint x="2355" y="1000" as="targetPoint" />
          </mxGeometry>
        </mxCell>
        <mxCell id="2wfrdfqEo3t6nH3sHRIx-80" value="Xác nhận cập nhật" style="html=1;verticalAlign=bottom;endArrow=block;edgeStyle=elbowEdgeStyle;elbow=horizontal;curved=0;rounded=0;fontSize=14;dashed=1;entryX=0.552;entryY=0.447;entryDx=0;entryDy=0;entryPerimeter=0;" edge="1" parent="1">
          <mxGeometry relative="1" as="geometry">
            <mxPoint x="2450" y="1060" as="sourcePoint" />
            <Array as="points" />
            <mxPoint x="2190" y="1060" as="targetPoint" />
            <mxPoint as="offset" />
          </mxGeometry>
        </mxCell>
      </root>
    </mxGraphModel>
  </diagram>
</mxfile>
